<svg xmlns="http://www.w3.org/2000/svg" version="1.0" viewBox="0 0 370 370"><defs><linearGradient id="a" x1="266.01" x2="346.31" y1="365.8" y2="357.98" gradientTransform="translate(-112.52 -271)" gradientUnits="userSpaceOnUse"><stop offset="0" stop-color="#f57936"/><stop offset="1" stop-color="#f57936" stop-opacity="0"/></linearGradient><linearGradient id="b" x1="274.49" x2="282.3" y1="342.5" y2="305.03" gradientTransform="translate(-112.52 -271)" gradientUnits="userSpaceOnUse"><stop offset="0" stop-color="#f3813b"/><stop offset="1" stop-color="#f3813b" stop-opacity="0"/></linearGradient><linearGradient id="c" x1="245.71" x2="250.36" y1="377.69" y2="321.84" gradientTransform="translate(-112.52 -271)" gradientUnits="userSpaceOnUse"><stop offset="0" stop-color="#f9a465"/><stop offset="1" stop-color="#f9a465" stop-opacity="0"/></linearGradient><linearGradient id="d" x1="225.99" x2="165.66" y1="400.07" y2="383.22" gradientTransform="translate(-112.52 -271)" gradientUnits="userSpaceOnUse"><stop offset="0" stop-color="#faa668"/><stop offset="1" stop-color="#faa668" stop-opacity="0"/></linearGradient><linearGradient id="e" x1="199.3" x2="161.36" y1="420.02" y2="447.11" gradientTransform="translate(-112.52 -271)" gradientUnits="userSpaceOnUse"><stop offset="0" stop-color="#f17e39"/><stop offset="1" stop-color="#f17e39" stop-opacity="0"/></linearGradient><linearGradient id="f" x1="218.14" x2="213.35" y1="429.69" y2="481.32" gradientTransform="translate(-112.52 -271)" gradientUnits="userSpaceOnUse"><stop offset="0" stop-color="#f67a34"/><stop offset="1" stop-color="#f67a34" stop-opacity="0"/></linearGradient><linearGradient id="g" x1="235.32" x2="277.47" y1="407.04" y2="450.98" gradientTransform="translate(-112.52 -271)" gradientUnits="userSpaceOnUse"><stop offset="0" stop-color="#fc9f59"/><stop offset="1" stop-color="#fc9f59" stop-opacity="0"/></linearGradient><linearGradient id="h" x1="264.82" x2="314.27" y1="375.79" y2="407.69" gradientTransform="translate(-112.52 -271)" gradientUnits="userSpaceOnUse"><stop offset="0" stop-color="#fc9f59"/><stop offset="1" stop-color="#fc9f59" stop-opacity="0"/></linearGradient><linearGradient id="i" x1="465.71" x2="318.1" y1="527.25" y2="408.09" gradientTransform="translate(-112.52 -271)" gradientUnits="userSpaceOnUse"><stop offset="0" stop-color="#9f410d"/><stop offset="1" stop-color="#9f410d" stop-opacity="0"/></linearGradient><linearGradient id="j" x1="442.48" x2="334.06" y1="360.5" y2="358.8" gradientTransform="translate(-112.52 -271)" gradientUnits="userSpaceOnUse"><stop offset="0" stop-color="#a1420e"/><stop offset="1" stop-color="#a1420e" stop-opacity="0"/></linearGradient><linearGradient id="k" x1="325.34" x2="302.92" y1="277.19" y2="309.85" gradientTransform="translate(-112.52 -271)" gradientUnits="userSpaceOnUse"><stop offset="0" stop-color="#a1420e"/><stop offset="1" stop-color="#a1420e" stop-opacity="0"/></linearGradient><linearGradient id="l" x1="202.07" x2="221.25" y1="285.65" y2="314.59" gradientTransform="translate(-112.52 -271)" gradientUnits="userSpaceOnUse"><stop offset="0" stop-color="#a1420e"/><stop offset="1" stop-color="#a1420e" stop-opacity="0"/></linearGradient><linearGradient id="m" x1="128.57" x2="167.59" y1="365.34" y2="383.22" gradientTransform="translate(-112.52 -271)" gradientUnits="userSpaceOnUse"><stop offset="0" stop-color="#a1420e"/><stop offset="1" stop-color="#a1420e" stop-opacity="0"/></linearGradient><linearGradient id="n" x1="362.31" x2="265.11" y1="608.8" y2="446.23" gradientTransform="translate(-112.52 -271)" gradientUnits="userSpaceOnUse"><stop offset="0" stop-color="#a1420d"/><stop offset="1" stop-color="#a1420d" stop-opacity="0"/></linearGradient><linearGradient id="o" x1="224.3" x2="216.96" y1="615.29" y2="488.47" gradientTransform="translate(-112.52 -271)" gradientUnits="userSpaceOnUse"><stop offset="0" stop-color="#a1420d"/><stop offset="1" stop-color="#a1420d" stop-opacity="0"/></linearGradient><linearGradient id="p" x1="118.66" x2="161.36" y1="489.24" y2="450.93" gradientTransform="translate(-112.52 -271)" gradientUnits="userSpaceOnUse"><stop offset="0" stop-color="#a3430e"/><stop offset="1" stop-color="#a3430e" stop-opacity="0"/></linearGradient></defs><path d="M6.113 184.641a178.457 178.457 0 1 0 356.913 0 178.457 178.457 0 1 0-356.913 0z"/><path fill="#d65a1e" fill-rule="evenodd" d="m239.76 119.31 23.46 28.9c-57.19 41.9-32.86 187.63-96.28 214-44.87-4.41-84.89-25.47-113.78-56.9 57.83-69.47 117.64-135.6 186.6-186z"/><path fill="#d65a1e" fill-rule="evenodd" d="m206.04 86.808 25.28 25.282C147.56 183.1 94.56 242.58 48.97 299.28l-.75.43C21.96 268.64 6.13 228.47 6.13 184.62c0-3.55.11-7.07.31-10.56 31.72-64 150.87-43.02 199.6-87.252z"/><path fill="#d65a1e" fill-rule="evenodd" d="M100.51 37.745c39.81.398 90.39 26.012 95.31 40.656C194.2 115.16 25.22 104.39 7.44 165.06l-.25.03c5.59-51.2 32.84-95.91 72.41-124.75 6.46-1.878 13.55-2.668 20.91-2.595z"/><path fill="#d65a1e" fill-rule="evenodd" d="M184.57 6.183c8.95 0 17.77.662 26.37 1.937 26.55 28.735 12.38 54.55-1.87 62.438-12.17 8.663-43.55-45.58-122.22-35.219 28.08-18.426 61.65-29.156 97.72-29.156zM265.91 158.68c1.63.03 3.333.36 5.127.97 23.257 18.25 65.801 106.07 40.937 149.85-.005 0 .005.02 0 .03-32.392 33.03-77.524 53.53-127.4 53.53-1.37 0-2.73 0-4.1-.03 53.74-38.84 42.04-193.68 85.44-204.35z"/><path fill="#d65a1e" fill-rule="evenodd" d="M308.849 136.15c19.536.62 42.335 10.86 53.063 33.13l.562 1.34c.36 4.62.563 9.29.563 14 0 44.15-16.068 84.55-42.657 115.72 24.609-77.25-50.266-145.17-42.125-152.72 5.382-7.8 17.227-11.89 30.594-11.47z"/><path fill="#d65a1e" fill-rule="evenodd" d="M314.505 62.37c25.213 26.784 42.28 61.34 47.125 99.69-18.967-31.72-47.261-43.24-93-19.25l-23.47-29.5c15.33-13.829 47.642-37.702 69.345-50.94zM218.66 9.433c34.96 6.768 66.285 23.757 90.752 47.718l-.438.782c-25.737 11.719-47.754 30.929-70.434 48.747L211.47 81.4c17.64-17.783 31.24-37.201 7.19-71.967z"/><path fill="url(#a)" fill-rule="evenodd" d="M268.66 37.745c-39.81.398-90.39 26.012-95.31 40.656 1.62 36.759 170.6 25.989 188.38 86.659l.25.03c-5.59-51.2-32.84-95.91-72.41-124.75-6.46-1.878-13.55-2.668-20.91-2.595z" transform="matrix(-1 0 0 1 369.17 0)"/><path fill="url(#b)" fill-rule="evenodd" d="M184.6 6.183c-8.95 0-17.77.662-26.37 1.937-26.55 28.735-12.38 54.55 1.87 62.438 12.17 8.663 43.55-45.58 122.22-35.219-28.08-18.426-61.65-29.156-97.72-29.156z" transform="matrix(-1 0 0 1 369.17 0)"/><path fill="url(#c)" fill-rule="evenodd" d="M150.51 9.433C115.55 16.2 84.225 33.19 59.758 57.15l.438.782c25.737 11.719 47.754 30.929 70.434 48.747L157.7 81.4c-17.64-17.783-31.24-37.201-7.19-71.967z" transform="matrix(-1 0 0 1 369.17 0)"/><path fill="url(#d)" fill-rule="evenodd" d="M54.665 62.37c-25.213 26.784-42.28 61.34-47.125 99.69 18.967-31.72 47.261-43.24 93-19.25l23.47-29.5c-15.33-13.829-47.642-37.702-69.345-50.94z" transform="matrix(-1 0 0 1 369.17 0)"/><path fill="url(#e)" fill-rule="evenodd" d="M60.321 136.15c-19.536.62-42.335 10.86-53.063 33.13l-.562 1.34c-.36 4.62-.563 9.29-.563 14 0 44.15 16.068 84.55 42.657 115.72-24.609-77.25 50.266-145.17 42.125-152.72-5.382-7.8-17.227-11.89-30.594-11.47z" transform="matrix(-1 0 0 1 369.17 0)"/><path fill="url(#f)" fill-rule="evenodd" d="M103.26 158.68c-1.63.03-3.333.36-5.127.97C74.876 177.9 32.332 265.72 57.196 309.5c.005 0-.005.02 0 .03 32.392 33.03 77.524 53.53 127.4 53.53 1.37 0 2.73 0 4.1-.03-53.74-38.84-42.04-193.68-85.44-204.35z" transform="matrix(-1 0 0 1 369.17 0)"/><path fill="url(#g)" fill-rule="evenodd" d="m129.41 119.31-23.46 28.9c57.19 41.9 32.86 187.63 96.28 214 44.87-4.41 84.89-25.47 113.78-56.9-57.83-69.47-117.64-135.6-186.6-186z" transform="matrix(-1 0 0 1 369.17 0)"/><path fill="url(#h)" fill-rule="evenodd" d="m163.13 86.808-25.28 25.282c83.76 71.01 136.76 130.49 182.35 187.19l.75.43c26.26-31.07 42.09-71.24 42.09-115.09 0-3.55-.11-7.07-.31-10.56-31.72-64-150.87-43.02-199.6-87.252z" transform="matrix(-1 0 0 1 369.17 0)"/><path fill="url(#i)" fill-rule="evenodd" d="m163.13 86.808-25.28 25.282c83.76 71.01 136.76 130.49 182.35 187.19l.75.43c26.26-31.07 42.09-71.24 42.09-115.09 0-3.55-.11-7.07-.31-10.56-31.72-64-150.87-43.02-199.6-87.252z" transform="matrix(-1 0 0 1 369.17 0)"/><path fill="url(#j)" fill-rule="evenodd" d="M268.66 37.745c-39.81.398-90.39 26.012-95.31 40.656 1.62 36.759 170.6 25.989 188.38 86.659l.25.03c-5.59-51.2-32.84-95.91-72.41-124.75-6.46-1.878-13.55-2.668-20.91-2.595z" transform="matrix(-1 0 0 1 369.17 0)"/><path fill="url(#k)" fill-rule="evenodd" d="M184.6 6.183c-8.95 0-17.77.662-26.37 1.937-26.55 28.735-12.38 54.55 1.87 62.438 12.17 8.663 43.55-45.58 122.22-35.219-28.08-18.426-61.65-29.156-97.72-29.156z" transform="matrix(-1 0 0 1 369.17 0)"/><path fill="url(#l)" fill-rule="evenodd" d="M150.51 9.433C115.55 16.2 84.225 33.19 59.758 57.15l.438.782c25.737 11.719 47.754 30.929 70.434 48.747L157.7 81.4c-17.64-17.783-31.24-37.201-7.19-71.967z" transform="matrix(-1 0 0 1 369.17 0)"/><path fill="url(#m)" fill-rule="evenodd" d="M54.665 62.37c-25.213 26.784-42.28 61.34-47.125 99.69 18.967-31.72 47.261-43.24 93-19.25l23.47-29.5c-15.33-13.829-47.642-37.702-69.345-50.94z" transform="matrix(-1 0 0 1 369.17 0)"/><path fill="url(#n)" fill-rule="evenodd" d="m129.41 119.31-23.46 28.9c57.19 41.9 32.86 187.63 96.28 214 44.87-4.41 84.89-25.47 113.78-56.9-57.83-69.47-117.64-135.6-186.6-186z" transform="matrix(-1 0 0 1 369.17 0)"/><path fill="url(#o)" fill-rule="evenodd" d="M103.26 158.68c-1.63.03-3.333.36-5.127.97C74.876 177.9 32.332 265.72 57.196 309.5c.005 0-.005.02 0 .03 32.392 33.03 77.524 53.53 127.4 53.53 1.37 0 2.73 0 4.1-.03-53.74-38.84-42.04-193.68-85.44-204.35z" transform="matrix(-1 0 0 1 369.17 0)"/><path fill="url(#p)" fill-rule="evenodd" d="M60.321 136.15c-19.536.62-42.335 10.86-53.063 33.13l-.562 1.34c-.36 4.62-.563 9.29-.563 14 0 44.15 16.068 84.55 42.657 115.72-24.609-77.25 50.266-145.17 42.125-152.72-5.382-7.8-17.227-11.89-30.594-11.47z" transform="matrix(-1 0 0 1 369.17 0)"/></svg>